<svg width="97" height="32" viewBox="0 0 97 32" fill="none" xmlns="http://www.w3.org/2000/svg">
<path d="M33.16 29V26.48H36.688V6.392H33.16V3.872H43.24V6.392H39.712V26.48H43.24V29H33.16Z" fill="#4CBB17"/>
<path d="M58.1581 29.432C56.5261 29.432 55.0501 29.156 53.7301 28.604C52.4341 28.028 51.3181 27.2 50.3821 26.12C49.4701 25.016 48.7621 23.66 48.2581 22.052C47.7541 20.42 47.5021 18.548 47.5021 16.436C47.5021 14.324 47.7541 12.464 48.2581 10.856C48.7621 9.248 49.4701 7.892 50.3821 6.788C51.3181 5.684 52.4341 4.856 53.7301 4.304C55.0501 3.728 56.5261 3.44 58.1581 3.44C59.7661 3.44 61.2301 3.728 62.5501 4.304C63.8701 4.856 64.9861 5.684 65.8981 6.788C66.8341 7.892 67.5541 9.248 68.0581 10.856C68.5621 12.464 68.8141 14.324 68.8141 16.436C68.8141 18.548 68.5621 20.42 68.0581 22.052C67.5541 23.66 66.8341 25.016 65.8981 26.12C64.9861 27.2 63.8701 28.028 62.5501 28.604C61.2301 29.156 59.7661 29.432 58.1581 29.432ZM58.1581 26.732C59.2381 26.732 60.2341 26.54 61.1461 26.156C62.0581 25.772 62.8381 25.22 63.4861 24.5C64.1581 23.78 64.6741 22.916 65.0341 21.908C65.3941 20.9 65.5741 19.772 65.5741 18.524V14.348C65.5741 13.1 65.3941 11.972 65.0341 10.964C64.6741 9.956 64.1581 9.092 63.4861 8.372C62.8381 7.652 62.0581 7.1 61.1461 6.716C60.2341 6.332 59.2381 6.14 58.1581 6.14C57.0781 6.14 56.0821 6.332 55.1701 6.716C54.2581 7.1 53.4661 7.652 52.7941 8.372C52.1461 9.092 51.6421 9.956 51.2821 10.964C50.9221 11.972 50.7421 13.1 50.7421 14.348V18.524C50.7421 19.772 50.9221 20.9 51.2821 21.908C51.6421 22.916 52.1461 23.78 52.7941 24.5C53.4661 25.22 54.2581 25.772 55.1701 26.156C56.0821 26.54 57.0781 26.732 58.1581 26.732Z" fill="#4CBB17"/>
<path d="M5.216 22.624L11.48 1.24H13.208L6.944 22.624H5.216Z" fill="#4CBB17"/>
<path d="M16.3475 17.272L24.6275 12.448V12.256L16.3475 7.432V5.416L26.4275 11.392V13.312L16.3475 19.288V17.272Z" fill="#4CBB17"/>
<path d="M1 0V32M81 28L96.9995 28M33.16 29V26.48H36.688V6.392H33.16V3.872H43.24V6.392H39.712V26.48H43.24V29H33.16ZM58.1581 29.432C56.5261 29.432 55.0501 29.156 53.7301 28.604C52.4341 28.028 51.3181 27.2 50.3821 26.12C49.4701 25.016 48.7621 23.66 48.2581 22.052C47.7541 20.42 47.5021 18.548 47.5021 16.436C47.5021 14.324 47.7541 12.464 48.2581 10.856C48.7621 9.248 49.4701 7.892 50.3821 6.788C51.3181 5.684 52.4341 4.856 53.7301 4.304C55.0501 3.728 56.5261 3.44 58.1581 3.44C59.7661 3.44 61.2301 3.728 62.5501 4.304C63.8701 4.856 64.9861 5.684 65.8981 6.788C66.8341 7.892 67.5541 9.248 68.0581 10.856C68.5621 12.464 68.8141 14.324 68.8141 16.436C68.8141 18.548 68.5621 20.42 68.0581 22.052C67.5541 23.66 66.8341 25.016 65.8981 26.12C64.9861 27.2 63.8701 28.028 62.5501 28.604C61.2301 29.156 59.7661 29.432 58.1581 29.432ZM58.1581 26.732C59.2381 26.732 60.2341 26.54 61.1461 26.156C62.0581 25.772 62.8381 25.22 63.4861 24.5C64.1581 23.78 64.6741 22.916 65.0341 21.908C65.3941 20.9 65.5741 19.772 65.5741 18.524V14.348C65.5741 13.1 65.3941 11.972 65.0341 10.964C64.6741 9.956 64.1581 9.092 63.4861 8.372C62.8381 7.652 62.0581 7.1 61.1461 6.716C60.2341 6.332 59.2381 6.14 58.1581 6.14C57.0781 6.14 56.0821 6.332 55.1701 6.716C54.2581 7.1 53.4661 7.652 52.7941 8.372C52.1461 9.092 51.6421 9.956 51.2821 10.964C50.9221 11.972 50.7421 13.1 50.7421 14.348V18.524C50.7421 19.772 50.9221 20.9 51.2821 21.908C51.6421 22.916 52.1461 23.78 52.7941 24.5C53.4661 25.22 54.2581 25.772 55.1701 26.156C56.0821 26.54 57.0781 26.732 58.1581 26.732ZM5.216 22.624L11.48 1.24H13.208L6.944 22.624H5.216ZM16.3475 17.272L24.6275 12.448V12.256L16.3475 7.432V5.416L26.4275 11.392V13.312L16.3475 19.288V17.272Z" stroke="#4CBB17" stroke-width="2"/>
</svg>
